{
    "asset" : {
        "generator" : "Khronos glTF Blender I/O v1.1.46",
        "version" : "2.0"
    },
    "scene" : 0,
    "scenes" : [
        {
            "name" : "Scene",
            "nodes" : [
                0,
                1,
                10
            ]
        }
    ],
    "nodes" : [
        {
            "name" : "Light",
            "rotation" : [
                0.16907575726509094,
                0.7558803558349609,
                -0.27217137813568115,
                0.570947527885437
            ],
            "translation" : [
                4.076245307922363,
                5.903861999511719,
                -1.0054539442062378
            ]
        },
        {
            "name" : "Camera",
            "rotation" : [
                0.483536034822464,
                0.33687159419059753,
                -0.20870360732078552,
                0.7804827094078064
            ],
            "translation" : [
                7.358891487121582,
                4.958309173583984,
                6.925790786743164
            ]
        },
        {
            "name" : "Camera.002",
            "rotation" : [
                0.0009410780039615929,
                0.9990476369857788,
                -0.02836519666016102,
                0.03314006328582764
            ],
            "translation" : [
                12.808286666870117,
                -316.9803161621094,
                -7087.35205078125
            ]
        },
        {
            "name" : "pointLight10",
            "rotation" : [
                -0.7071068286895752,
                0,
                0,
                0.7071067094802856
            ],
            "translation" : [
                207.2890625,
                -399.1695861816406,
                775.9324951171875
            ]
        },
        {
            "name" : "pointLight12",
            "rotation" : [
                -0.7071068286895752,
                0,
                0,
                0.7071067094802856
            ],
            "translation" : [
                -802.093994140625,
                -398.3514099121094,
                205.97325134277344
            ]
        },
        {
            "name" : "pointLight3",
            "rotation" : [
                -0.7071068286895752,
                0,
                0,
                0.7071067094802856
            ],
            "translation" : [
                3.029775619506836,
                -96.9767837524414,
                -5801.42578125
            ]
        },
        {
            "name" : "pointLight4",
            "rotation" : [
                -0.7071068286895752,
                0,
                0,
                0.7071067094802856
            ],
            "translation" : [
                -208.8037567138672,
                -199.86863708496094,
                -5080.15625
            ]
        },
        {
            "name" : "pointLight6",
            "rotation" : [
                -0.7071068286895752,
                0,
                0,
                0.7071067094802856
            ],
            "translation" : [
                3.0201947689056396,
                -122.29517364501953,
                -3155.57666015625
            ]
        },
        {
            "name" : "pointLight8",
            "rotation" : [
                -0.7071068286895752,
                0,
                0,
                0.7071067094802856
            ],
            "translation" : [
                241.31773376464844,
                -199.32769775390625,
                -2852.671630859375
            ]
        },
        {
            "mesh" : 0,
            "name" : "SM_Statue_5",
            "rotation" : [
                0,
                0,
                -0.9999904632568359,
                -0.004363209009170532
            ]
        },
        {
            "children" : [
                2,
                3,
                4,
                5,
                6,
                7,
                8,
                9
            ],
            "name" : "group1",
            "scale" : [
                0.009999999776482582,
                0.010000000707805157,
                0.010000000707805157
            ]
        }
    ],
    "materials" : [
        {
            "doubleSided" : true,
            "emissiveFactor" : [
                0,
                0,
                0
            ],
            "name" : "M_Statue_Inst",
            "normalTexture" : {
                "index" : 0,
                "texCoord" : 0
            },
            "pbrMetallicRoughness" : {
                "baseColorTexture" : {
                    "index" : 1,
                    "texCoord" : 0
                },
                "metallicFactor" : 1,
                "roughnessFactor" : 0.5527864098548889
            }
        }
    ],
    "meshes" : [
        {
            "name" : "Mesh.328",
            "primitives" : [
                {
                    "attributes" : {
                        "POSITION" : 0,
                        "NORMAL" : 1,
                        "TEXCOORD_0" : 2,
                        "TEXCOORD_1" : 3
                    },
                    "indices" : 4,
                    "material" : 0
                }
            ]
        }
    ],
    "textures" : [
        {
            "source" : 0
        },
        {
            "source" : 1
        }
    ],
    "images" : [
        {
            "mimeType" : "image/png",
            "name" : "M_Statue_Inst_0_Normal",
            "uri" : "Textures/M_Statue_Inst_0_Normal.png"
        },
        {
            "mimeType" : "image/png",
            "name" : "M_Statue_Inst_0_BaseColor",
            "uri" : "Textures/M_Statue_Inst_0_BaseColor.png"
        }
    ],
    "accessors" : [
        {
            "bufferView" : 0,
            "componentType" : 5126,
            "count" : 26862,
            "max" : [
                311.9026794433594,
                -478.86260986328125,
                99.70719909667969
            ],
            "min" : [
                -291.90240478515625,
                -1143.686279296875,
                -113.40962219238281
            ],
            "type" : "VEC3"
        },
        {
            "bufferView" : 1,
            "componentType" : 5126,
            "count" : 26862,
            "type" : "VEC3"
        },
        {
            "bufferView" : 2,
            "componentType" : 5126,
            "count" : 26862,
            "type" : "VEC2"
        },
        {
            "bufferView" : 3,
            "componentType" : 5126,
            "count" : 26862,
            "type" : "VEC2"
        },
        {
            "bufferView" : 4,
            "componentType" : 5123,
            "count" : 26862,
            "type" : "SCALAR"
        }
    ],
    "bufferViews" : [
        {
            "buffer" : 0,
            "byteLength" : 322344,
            "byteOffset" : 0
        },
        {
            "buffer" : 0,
            "byteLength" : 322344,
            "byteOffset" : 322344
        },
        {
            "buffer" : 0,
            "byteLength" : 214896,
            "byteOffset" : 644688
        },
        {
            "buffer" : 0,
            "byteLength" : 214896,
            "byteOffset" : 859584
        },
        {
            "buffer" : 0,
            "byteLength" : 53724,
            "byteOffset" : 1074480
        }
    ],
    "buffers" : [
        {
            "byteLength" : 1128204,
            "uri" : "Lucy.bin"
        }
    ]
}
