{
    "asset" : {
        "generator" : "Khronos glTF Blender I/O v1.1.46",
        "version" : "2.0"
    },
    "scene" : 0,
    "scenes" : [
        {
            "name" : "Scene",
            "nodes" : [
                0,
                1,
                10
            ]
        }
    ],
    "nodes" : [
        {
            "name" : "Light",
            "rotation" : [
                0.5232754945755005,
                0.34203392267227173,
                -0.7269423604011536,
                0.284166157245636
            ],
            "translation" : [
                4.076245307922363,
                5.903862476348877,
                -1.0054532289505005
            ]
        },
        {
            "name" : "Camera",
            "rotation" : [
                0.8937963247299194,
                0.09062855690717697,
                -0.3857799172401428,
                0.20997287333011627
            ],
            "translation" : [
                7.358891487121582,
                4.958308696746826,
                6.925792217254639
            ]
        },
        {
            "name" : "Camera.002",
            "rotation" : [
                0.0009412128129042685,
                -0.02836519293487072,
                -0.9990477561950684,
                0.03313860669732094
            ],
            "translation" : [
                12.808286666870117,
                -7087.35205078125,
                316.9803161621094
            ]
        },
        {
            "name" : "pointLight10",
            "rotation" : [
                -0.7071068286895752,
                0,
                0,
                0.7071067094802856
            ],
            "translation" : [
                207.2890625,
                775.9324951171875,
                399.1695861816406
            ]
        },
        {
            "name" : "pointLight12",
            "rotation" : [
                -0.7071068286895752,
                0,
                0,
                0.7071067094802856
            ],
            "translation" : [
                -802.093994140625,
                205.97325134277344,
                398.3514099121094
            ]
        },
        {
            "name" : "pointLight3",
            "rotation" : [
                -0.7071068286895752,
                0,
                0,
                0.7071067094802856
            ],
            "translation" : [
                3.029775619506836,
                -5801.42578125,
                96.9767837524414
            ]
        },
        {
            "name" : "pointLight4",
            "rotation" : [
                -0.7071068286895752,
                0,
                0,
                0.7071067094802856
            ],
            "translation" : [
                -208.8037567138672,
                -5080.15625,
                199.86863708496094
            ]
        },
        {
            "name" : "pointLight6",
            "rotation" : [
                -0.7071068286895752,
                0,
                0,
                0.7071067094802856
            ],
            "translation" : [
                3.0201947689056396,
                -3155.57666015625,
                122.29517364501953
            ]
        },
        {
            "name" : "pointLight8",
            "rotation" : [
                -0.7071068286895752,
                0,
                0,
                0.7071067094802856
            ],
            "translation" : [
                241.31773376464844,
                -2852.671630859375,
                199.32769775390625
            ]
        },
        {
            "mesh" : 0,
            "name" : "SM_Statue_5",
            "rotation" : [
                0,
                0.9999905824661255,
                0,
                0.004363209940493107
            ],
            "translation" : [
                -4.961602098774165e-05,
                -4.371664090285776e-06,
                -6.306955765467137e-05
            ]
        },
        {
            "children" : [
                2,
                3,
                4,
                5,
                6,
                7,
                8,
                9
            ],
            "name" : "group1",
            "rotation" : [
                0.7071068286895752,
                0,
                0,
                0.7071067094802856
            ],
            "scale" : [
                0.009999999776482582,
                0.010000001639127731,
                0.010000001639127731
            ]
        }
    ],
    "materials" : [
        {
            "doubleSided" : true,
            "emissiveFactor" : [
                0,
                0,
                0
            ],
            "name" : "M_Statue_Inst",
            "normalTexture" : {
                "index" : 0,
                "texCoord" : 0
            },
            "pbrMetallicRoughness" : {
                "baseColorTexture" : {
                    "index" : 1,
                    "texCoord" : 0
                },
                "metallicFactor" : 1,
                "roughnessFactor" : 0.5527864098548889
            }
        }
    ],
    "meshes" : [
        {
            "name" : "Mesh.328",
            "primitives" : [
                {
                    "attributes" : {
                        "POSITION" : 0,
                        "NORMAL" : 1,
                        "TEXCOORD_0" : 2,
                        "TEXCOORD_1" : 3
                    },
                    "indices" : 4,
                    "material" : 0
                }
            ]
        }
    ],
    "textures" : [
        {
            "source" : 0
        },
        {
            "source" : 1
        }
    ],
    "images" : [
        {
            "mimeType" : "image/png",
            "name" : "M_Statue_Inst_0_Normal",
            "uri" : "Texture/M_Statue_Inst_0_Normal.png"
        },
        {
            "mimeType" : "image/png",
            "name" : "M_Statue_Inst_0_BaseColor",
            "uri" : "Texture/M_Statue_Inst_0_BaseColor.png"
        }
    ],
    "accessors" : [
        {
            "bufferView" : 0,
            "componentType" : 5126,
            "count" : 26862,
            "max" : [
                305.22723388671875,
                109.48515319824219,
                240.40989685058594
            ],
            "min" : [
                -298.5778503417969,
                -103.63166809082031,
                -424.41375732421875
            ],
            "type" : "VEC3"
        },
        {
            "bufferView" : 1,
            "componentType" : 5126,
            "count" : 26862,
            "type" : "VEC3"
        },
        {
            "bufferView" : 2,
            "componentType" : 5126,
            "count" : 26862,
            "type" : "VEC2"
        },
        {
            "bufferView" : 3,
            "componentType" : 5126,
            "count" : 26862,
            "type" : "VEC2"
        },
        {
            "bufferView" : 4,
            "componentType" : 5123,
            "count" : 26862,
            "type" : "SCALAR"
        }
    ],
    "bufferViews" : [
        {
            "buffer" : 0,
            "byteLength" : 322344,
            "byteOffset" : 0
        },
        {
            "buffer" : 0,
            "byteLength" : 322344,
            "byteOffset" : 322344
        },
        {
            "buffer" : 0,
            "byteLength" : 214896,
            "byteOffset" : 644688
        },
        {
            "buffer" : 0,
            "byteLength" : 214896,
            "byteOffset" : 859584
        },
        {
            "buffer" : 0,
            "byteLength" : 53724,
            "byteOffset" : 1074480
        }
    ],
    "buffers" : [
        {
            "byteLength" : 1128204,
            "uri" : "Lucy.bin"
        }
    ]
}
