{"buffers":[{"uri":"Lucy.bin","byteLength":913308}],"asset":{"version":"2.0","generator":"gltfpack 0.20"},"extensionsUsed":["KHR_texture_basisu"],"extensionsRequired":["KHR_texture_basisu"],"bufferViews":[{"buffer":0,"byteOffset":0,"byteLength":322344,"byteStride":12,"target":34962},{"buffer":0,"byteOffset":322344,"byteLength":322344,"byteStride":12,"target":34962},{"buffer":0,"byteOffset":644688,"byteLength":214896,"byteStride":8,"target":34962},{"buffer":0,"byteOffset":859584,"byteLength":53724,"target":34963}],"accessors":[{"bufferView":0,"byteOffset":0,"componentType":5126,"count":26862,"type":"VEC3","min":[-3.04530191,-4.2473011,-1.03631723],"max":[2.99252152,2.41674709,1.09485114]},{"bufferView":1,"byteOffset":0,"componentType":5126,"count":26862,"type":"VEC3"},{"bufferView":2,"byteOffset":0,"componentType":5126,"count":26862,"type":"VEC2"},{"bufferView":3,"byteOffset":0,"componentType":5123,"count":26862,"type":"SCALAR"}],"images":[{"uri":"M_Statue_Inst_0_Normal.ktx2"},{"uri":"M_Statue_Inst_0_BaseColor.ktx2"}],"textures":[{"extensions":{"KHR_texture_basisu":{"source":0}}},{"extensions":{"KHR_texture_basisu":{"source":1}}}],"materials":[{"name":"M_Statue_Inst","pbrMetallicRoughness":{"baseColorTexture":{"index":1},"roughnessFactor":0.55278641},"normalTexture":{"index":0},"doubleSided":true}],"meshes":[{"primitives":[{"attributes":{"POSITION":0,"NORMAL":1,"TEXCOORD_0":2},"indices":3,"material":0}]}],"nodes":[{"mesh":0}],"scenes":[{"name":"Scene","nodes":[0]}],"scene":0}