{"buffers":[{"uri":"Helmet.bin","byteLength":552104}],"asset":{"version":"2.0","generator":"gltfpack 0.20"},"extensionsUsed":["KHR_texture_basisu"],"extensionsRequired":["KHR_texture_basisu"],"bufferViews":[{"buffer":0,"byteOffset":0,"byteLength":172272,"byteStride":12,"target":34962},{"buffer":0,"byteOffset":172272,"byteLength":172272,"byteStride":12,"target":34962},{"buffer":0,"byteOffset":344544,"byteLength":114848,"byteStride":8,"target":34962},{"buffer":0,"byteOffset":459392,"byteLength":92712,"target":34963}],"accessors":[{"bufferView":0,"byteOffset":0,"componentType":5126,"count":14356,"type":"VEC3"},{"bufferView":1,"byteOffset":0,"componentType":5126,"count":14356,"type":"VEC3","min":[-0.947458565,-0.900974095,-1.18715513],"max":[0.942495406,0.900995135,0.81284517]},{"bufferView":2,"byteOffset":0,"componentType":5126,"count":14356,"type":"VEC2"},{"bufferView":3,"byteOffset":0,"componentType":5123,"count":46356,"type":"SCALAR"}],"samplers":[{}],"images":[{"uri":"Default_albedo.ktx2"},{"uri":"Default_metalRoughness.ktx2"},{"uri":"Default_emissive.ktx2"},{"uri":"Default_AO.ktx2"},{"uri":"Default_normal.ktx2"}],"textures":[{"sampler":0,"extensions":{"KHR_texture_basisu":{"source":0}}},{"sampler":0,"extensions":{"KHR_texture_basisu":{"source":1}}},{"sampler":0,"extensions":{"KHR_texture_basisu":{"source":2}}},{"sampler":0,"extensions":{"KHR_texture_basisu":{"source":3}}},{"sampler":0,"extensions":{"KHR_texture_basisu":{"source":4}}}],"materials":[{"name":"Material_MR","pbrMetallicRoughness":{"baseColorTexture":{"index":0},"metallicRoughnessTexture":{"index":1}},"normalTexture":{"index":4},"occlusionTexture":{"index":3},"emissiveTexture":{"index":2},"emissiveFactor":[1,1,1]}],"meshes":[{"primitives":[{"attributes":{"NORMAL":0,"POSITION":1,"TEXCOORD_0":2},"indices":3,"material":0}]}],"nodes":[{"mesh":0}],"scenes":[{"name":"Scene","nodes":[0]}],"scene":0}